<svg width="118" height="30" viewBox="0 0 118 30" fill="none" xmlns="http://www.w3.org/2000/svg">
<path d="M42.9919 11.0472C42.9209 10.3311 42.616 9.77474 42.0775 9.3782C41.5389 8.98165 40.8079 8.78338 39.8846 8.78338C39.2573 8.78338 38.7276 8.87216 38.2955 9.04972C37.8634 9.22135 37.532 9.46106 37.3012 9.76882C37.0763 10.0766 36.9638 10.4258 36.9638 10.8164C36.952 11.1419 37.02 11.426 37.168 11.6687C37.3219 11.9113 37.532 12.1214 37.7983 12.299C38.0647 12.4706 38.3724 12.6216 38.7216 12.7518C39.0708 12.8761 39.4437 12.9826 39.8402 13.0714L41.4738 13.462C42.2669 13.6396 42.9948 13.8763 43.6577 14.1722C44.3206 14.4682 44.8947 14.8321 45.38 15.2642C45.8653 15.6963 46.2412 16.2053 46.5075 16.7912C46.7798 17.3771 46.9188 18.0489 46.9248 18.8065C46.9188 19.9192 46.6348 20.8839 46.0725 21.7006C45.5161 22.5115 44.7112 23.1418 43.6577 23.5916C42.6101 24.0355 41.3465 24.2575 39.8669 24.2575C38.3991 24.2575 37.1207 24.0326 36.0316 23.5827C34.9486 23.1329 34.1022 22.4671 33.4926 21.5852C32.8889 20.6974 32.5723 19.5996 32.5427 18.2915H36.2625C36.3039 18.9012 36.4785 19.4102 36.7863 19.8185C37.0999 20.221 37.5172 20.5258 38.038 20.733C38.5648 20.9342 39.1596 21.0348 39.8225 21.0348C40.4735 21.0348 41.0388 20.9401 41.5182 20.7507C42.0035 20.5613 42.3793 20.2979 42.6456 19.9606C42.912 19.6232 43.0451 19.2356 43.0451 18.7976C43.0451 18.3892 42.9238 18.0459 42.6812 17.7678C42.4444 17.4896 42.0952 17.2528 41.6336 17.0575C41.1778 16.8622 40.6185 16.6847 39.9557 16.5249L37.9759 16.0277C36.443 15.6548 35.2326 15.0719 34.3449 14.2788C33.4571 13.4857 33.0161 12.4174 33.0221 11.0739C33.0161 9.97301 33.3091 9.01124 33.901 8.18857C34.4987 7.36589 35.3185 6.72372 36.3601 6.26207C37.4018 5.80043 38.5855 5.5696 39.9113 5.5696C41.2607 5.5696 42.4385 5.80043 43.4446 6.26207C44.4567 6.72372 45.2439 7.36589 45.8062 8.18857C46.3684 9.01124 46.6584 9.96413 46.6762 11.0472H42.9919ZM56.6926 10.3636V13.2045H48.4806V10.3636H56.6926ZM50.3449 7.09659H54.1269V19.8097C54.1269 20.1589 54.1802 20.4311 54.2867 20.6264C54.3932 20.8158 54.5412 20.949 54.7306 21.0259C54.9259 21.1029 55.1508 21.1413 55.4053 21.1413C55.5829 21.1413 55.7604 21.1265 55.938 21.0969C56.1155 21.0614 56.2517 21.0348 56.3464 21.017L56.9412 23.8313C56.7518 23.8905 56.4855 23.9586 56.1422 24.0355C55.7989 24.1184 55.3816 24.1687 54.8904 24.1864C53.9789 24.2219 53.1799 24.1006 52.4934 23.8224C51.8128 23.5443 51.283 23.1122 50.9043 22.5263C50.5255 21.9403 50.339 21.2005 50.3449 20.3068V7.09659ZM65.1709 24.2663C63.7919 24.2663 62.5993 23.9734 61.5932 23.3874C60.5929 22.7956 59.8206 21.9729 59.2761 20.9194C58.7315 19.86 58.4593 18.6319 58.4593 17.2351C58.4593 15.8265 58.7315 14.5954 59.2761 13.5419C59.8206 12.4825 60.5929 11.6598 61.5932 11.0739C62.5993 10.482 63.7919 10.1861 65.1709 10.1861C66.55 10.1861 67.7396 10.482 68.7398 11.0739C69.746 11.6598 70.5213 12.4825 71.0658 13.5419C71.6103 14.5954 71.8826 15.8265 71.8826 17.2351C71.8826 18.6319 71.6103 19.86 71.0658 20.9194C70.5213 21.9729 69.746 22.7956 68.7398 23.3874C67.7396 23.9734 66.55 24.2663 65.1709 24.2663ZM65.1887 21.3366C65.8161 21.3366 66.3399 21.1591 66.7601 20.804C67.1803 20.4429 67.4969 19.9517 67.71 19.3303C67.929 18.7088 68.0385 18.0015 68.0385 17.2085C68.0385 16.4154 67.929 15.7081 67.71 15.0866C67.4969 14.4652 67.1803 13.974 66.7601 13.6129C66.3399 13.2519 65.8161 13.0714 65.1887 13.0714C64.5554 13.0714 64.0227 13.2519 63.5907 13.6129C63.1646 13.974 62.842 14.4652 62.623 15.0866C62.4099 15.7081 62.3034 16.4154 62.3034 17.2085C62.3034 18.0015 62.4099 18.7088 62.623 19.3303C62.842 19.9517 63.1646 20.4429 63.5907 20.804C64.0227 21.1591 64.5554 21.3366 65.1887 21.3366ZM74.3418 24V10.3636H78.0083V12.7429H78.1503C78.3989 11.8965 78.8162 11.2573 79.4021 10.8253C79.9881 10.3873 80.6628 10.1683 81.4263 10.1683C81.6157 10.1683 81.8199 10.1802 82.0388 10.2038C82.2578 10.2275 82.4502 10.2601 82.6159 10.3015V13.6573C82.4383 13.604 82.1927 13.5567 81.879 13.5153C81.5654 13.4738 81.2783 13.4531 81.0179 13.4531C80.4615 13.4531 79.9644 13.5745 79.5264 13.8171C79.0944 14.0539 78.7511 14.3853 78.4966 14.8114C78.248 15.2376 78.1237 15.7288 78.1237 16.2852V24H74.3418ZM88.3532 5.81818V24H84.5712V5.81818H88.3532ZM95.1647 5.81818V24H91.3828V5.81818H95.1647ZM100.529 29.1136C100.05 29.1136 99.5999 29.0752 99.1797 28.9982C98.7654 28.9272 98.4222 28.8355 98.1499 28.723L99.0022 25.8999C99.4461 26.036 99.8456 26.11 100.201 26.1218C100.562 26.1336 100.872 26.0508 101.133 25.8732C101.399 25.6957 101.615 25.3938 101.781 24.9677L102.003 24.3906L97.1112 10.3636H101.088L103.912 20.3778H104.054L106.903 10.3636H110.907L105.607 25.4737C105.353 26.2076 105.007 26.8468 104.569 27.3913C104.137 27.9418 103.589 28.3649 102.926 28.6609C102.263 28.9627 101.464 29.1136 100.529 29.1136Z" fill="black"/>
<path d="M23.0182 9.86432C25.7107 9.86432 27.9009 7.67409 27.9009 4.98166C27.9009 2.28922 25.7107 0.098999 23.0182 0.098999C20.3258 0.098999 18.1356 2.28922 18.1356 4.98166C18.1356 7.67409 20.3258 9.86432 23.0182 9.86432ZM25.1108 21.0247V12.3614C24.4133 12.5568 23.7158 12.6544 23.0182 12.6544H22.3207V21.0247C22.3207 23.3405 20.4514 25.2098 18.1356 25.2098H6.97523C4.65945 25.2098 2.79009 23.3405 2.79009 21.0247V9.86432C2.79009 7.54854 4.65945 5.67918 6.97523 5.67918H15.3455V4.98166C15.3455 4.28413 15.4432 3.58661 15.6385 2.88909H6.97523C3.1249 2.88909 0 6.01399 0 9.86432V21.0247C0 24.875 3.1249 27.9999 6.97523 27.9999H18.1356C21.9859 27.9999 25.1108 24.875 25.1108 21.0247Z" fill="url(#paint0_linear_170_66)"/>
<circle cx="22.9238" cy="5.07616" r="5.07616" fill="white"/>
<path d="M22.1624 0.864014C19.3007 0.864014 16.9834 3.18652 16.9834 6.04818C16.9834 8.90984 19.3007 11.2323 22.1624 11.2323C25.0292 11.2323 27.3517 8.90984 27.3517 6.04818C27.3517 3.18652 25.0292 0.864014 22.1624 0.864014ZM24.3605 9.15868L22.1676 7.83672L19.9747 9.15868L20.5553 6.6651L18.6216 4.99061L21.1722 4.77288L22.1676 2.41926L23.1629 4.76769L25.7135 4.98543L23.7798 6.65991L24.3605 9.15868Z" fill="black"/>
<defs>
<linearGradient id="paint0_linear_170_66" x1="3.1591" y1="3.99612" x2="21.4117" y2="28.0809" gradientUnits="userSpaceOnUse">
<stop offset="0.0158061" stop-color="#9D54E6"/>
<stop offset="1" stop-color="#545FE6"/>
</linearGradient>
</defs>
</svg>
