<svg width="20" height="21" viewBox="0 0 20 21" fill="none" xmlns="http://www.w3.org/2000/svg">
<path d="M10 0C4.47768 0 0 4.59207 0 10.2555C0 15.9189 4.47768 20.5109 10 20.5109C15.5223 20.5109 20 15.9189 20 10.2555C20 4.59207 15.5223 0 10 0ZM14.8058 7.73052C14.8125 7.83811 14.8125 7.95028 14.8125 8.06016C14.8125 11.4207 12.317 15.2916 7.7567 15.2916C6.35045 15.2916 5.04688 14.8727 3.94866 14.1516C4.14955 14.1745 4.34152 14.1837 4.54688 14.1837C5.70759 14.1837 6.77455 13.7808 7.625 13.0986C6.53571 13.0757 5.62054 12.3432 5.30804 11.336C5.68973 11.3932 6.03348 11.3932 6.42634 11.2902C5.86546 11.1733 5.36133 10.8609 4.99959 10.4061C4.63785 9.9512 4.44082 9.38194 4.44196 8.79498V8.76293C4.77009 8.95293 5.15625 9.06968 5.56027 9.0857C5.22063 8.85357 4.94209 8.53907 4.74936 8.1701C4.55662 7.80113 4.45563 7.38909 4.45536 6.97051C4.45536 6.49665 4.57589 6.064 4.79241 5.68858C5.41496 6.47453 6.19181 7.11734 7.07247 7.57523C7.95312 8.03312 8.91787 8.29583 9.90402 8.3463C9.55357 6.61798 10.8125 5.2193 12.3259 5.2193C13.0402 5.2193 13.683 5.52605 14.1362 6.02051C14.6964 5.91292 15.2321 5.69774 15.7098 5.4093C15.5246 5.99762 15.1362 6.49437 14.6205 6.80798C15.1205 6.75304 15.6027 6.61111 16.0491 6.41196C15.7121 6.92015 15.2902 7.37112 14.8058 7.73052Z" fill="black"/>
</svg>
