<svg width="124" height="32" viewBox="0 0 124 32" fill="none" xmlns="http://www.w3.org/2000/svg">
<path d="M3.1112 26.1006H6.2224V11.6003C6.22235 11.4098 6.26255 11.2212 6.34071 11.0452C6.41887 10.8692 6.53345 10.7093 6.67792 10.5746C6.82238 10.4399 6.9939 10.3331 7.18267 10.2602C7.37144 10.1873 7.57377 10.1498 7.7781 10.1498H26.4455V7.25011C26.4455 6.86552 26.2816 6.49668 25.9899 6.22473C25.6981 5.95278 25.3024 5.8 24.8898 5.8H20.1433C19.9611 4.20745 19.1535 2.73397 17.8758 1.66319C16.598 0.592405 14.9406 0 13.2224 0C11.5042 0 9.84668 0.592405 8.56896 1.66319C7.29123 2.73397 6.48357 4.20745 6.30143 5.8H1.5557C1.1431 5.8 0.747405 5.95278 0.455654 6.22473C0.163904 6.49668 0 6.86552 0 7.25011V23.2006C0 23.5814 0.0804736 23.9585 0.236826 24.3104C0.393179 24.6622 0.622348 24.9819 0.91125 25.2512C1.20015 25.5205 1.54313 25.7341 1.9206 25.8799C2.29806 26.0256 2.70263 26.1006 3.1112 26.1006ZM13.2228 2.89997C14.119 2.90089 14.9875 3.18985 15.6818 3.71813C16.376 4.24641 16.8537 4.9817 17.0341 5.8H9.41144C9.59199 4.98176 10.0696 4.24656 10.7639 3.7183C11.4582 3.19004 12.3266 2.90102 13.2228 2.89997Z" fill="url(#paint0_linear_91_4)"/>
<path d="M29.557 13.0502H10.8896C10.477 13.0502 10.0813 13.203 9.78952 13.4749C9.49777 13.7469 9.33386 14.1157 9.33386 14.5003V26.1004C9.33386 26.4813 9.41434 26.8584 9.57069 27.2102C9.72704 27.5621 9.95621 27.8818 10.2451 28.1511C10.534 28.4204 10.877 28.634 11.2545 28.7797C11.6319 28.9255 12.0365 29.0005 12.4451 29.0005H28.0013C28.8263 29.0003 29.6174 28.6947 30.2007 28.1508C30.784 27.607 31.1117 26.8695 31.1117 26.1004V14.5003C31.1117 14.1159 30.9479 13.7472 30.6564 13.4753C30.3648 13.2033 29.9694 13.0504 29.557 13.0502ZM20.2228 23.2C18.1607 23.1979 16.1837 22.4334 14.7256 21.0743C13.2675 19.7151 12.4473 17.8724 12.4451 15.9502H15.5563C15.5563 17.104 16.048 18.2104 16.9232 19.0263C17.7984 19.8421 18.9854 20.3004 20.2232 20.3004C21.4609 20.3004 22.648 19.8421 23.5232 19.0263C24.3984 18.2104 24.8901 17.104 24.8901 15.9502H28.0013C27.999 17.8725 27.1787 19.7154 25.7205 21.0746C24.2622 22.4337 22.285 23.1981 20.2228 23.2Z" fill="url(#paint1_linear_91_4)"/>
<path d="M48.9921 13.0472C48.9211 12.3311 48.6163 11.7747 48.0777 11.3782C47.5391 10.9817 46.8082 10.7834 45.8849 10.7834C45.2575 10.7834 44.7278 10.8722 44.2957 11.0497C43.8637 11.2214 43.5322 11.4611 43.3014 11.7688C43.0765 12.0766 42.9641 12.4258 42.9641 12.8164C42.9522 13.1419 43.0203 13.426 43.1683 13.6687C43.3221 13.9113 43.5322 14.1214 43.7986 14.299C44.0649 14.4706 44.3727 14.6216 44.7219 14.7518C45.0711 14.8761 45.4439 14.9826 45.8405 15.0714L47.474 15.462C48.2671 15.6396 48.9951 15.8763 49.658 16.1722C50.3208 16.4682 50.8949 16.8321 51.3803 17.2642C51.8656 17.6963 52.2414 18.2053 52.5077 18.7912C52.78 19.3771 52.9191 20.0489 52.925 20.8065C52.9191 21.9192 52.635 22.8839 52.0727 23.7006C51.5164 24.5115 50.7115 25.1418 49.658 25.5916C48.6104 26.0355 47.3468 26.2575 45.8671 26.2575C44.3993 26.2575 43.1209 26.0326 42.0319 25.5827C40.9488 25.1329 40.1024 24.4671 39.4928 23.5852C38.8891 22.6974 38.5725 21.5996 38.5429 20.2915H42.2627C42.3041 20.9012 42.4787 21.4102 42.7865 21.8185C43.1002 22.221 43.5175 22.5258 44.0383 22.733C44.565 22.9342 45.1599 23.0348 45.8227 23.0348C46.4738 23.0348 47.039 22.9401 47.5184 22.7507C48.0037 22.5613 48.3796 22.2979 48.6459 21.9606C48.9122 21.6232 49.0454 21.2356 49.0454 20.7976C49.0454 20.3892 48.9241 20.0459 48.6814 19.7678C48.4447 19.4896 48.0955 19.2528 47.6338 19.0575C47.1781 18.8622 46.6188 18.6847 45.9559 18.5249L43.9761 18.0277C42.4432 17.6548 41.2329 17.0719 40.3451 16.2788C39.4573 15.4857 39.0164 14.4174 39.0223 13.0739C39.0164 11.973 39.3094 11.0112 39.9012 10.1886C40.499 9.36589 41.3187 8.72372 42.3604 8.26207C43.402 7.80043 44.5858 7.5696 45.9115 7.5696C47.2609 7.5696 48.4387 7.80043 49.4449 8.26207C50.457 8.72372 51.2441 9.36589 51.8064 10.1886C52.3687 11.0112 52.6587 11.9641 52.6764 13.0472H48.9921ZM62.6928 12.3636V15.2045H54.4808V12.3636H62.6928ZM56.3452 9.09659H60.1272V21.8097C60.1272 22.1589 60.1804 22.4311 60.287 22.6264C60.3935 22.8158 60.5415 22.949 60.7308 23.0259C60.9262 23.1029 61.1511 23.1413 61.4056 23.1413C61.5831 23.1413 61.7607 23.1265 61.9382 23.0969C62.1158 23.0614 62.2519 23.0348 62.3466 23.017L62.9414 25.8313C62.752 25.8905 62.4857 25.9586 62.1424 26.0355C61.7991 26.1184 61.3819 26.1687 60.8906 26.1864C59.9792 26.2219 59.1802 26.1006 58.4936 25.8224C57.813 25.5443 57.2833 25.1122 56.9045 24.5263C56.5257 23.9403 56.3393 23.2005 56.3452 22.3068V9.09659ZM71.1712 26.2663C69.7922 26.2663 68.5996 25.9734 67.5934 25.3874C66.5932 24.7956 65.8208 23.9729 65.2763 22.9194C64.7318 21.86 64.4595 20.6319 64.4595 19.2351C64.4595 17.8265 64.7318 16.5954 65.2763 15.5419C65.8208 14.4825 66.5932 13.6598 67.5934 13.0739C68.5996 12.482 69.7922 12.1861 71.1712 12.1861C72.5502 12.1861 73.7398 12.482 74.7401 13.0739C75.7462 13.6598 76.5216 14.4825 77.0661 15.5419C77.6106 16.5954 77.8828 17.8265 77.8828 19.2351C77.8828 20.6319 77.6106 21.86 77.0661 22.9194C76.5216 23.9729 75.7462 24.7956 74.7401 25.3874C73.7398 25.9734 72.5502 26.2663 71.1712 26.2663ZM71.1889 23.3366C71.8163 23.3366 72.3401 23.1591 72.7603 22.804C73.1805 22.4429 73.4972 21.9517 73.7102 21.3303C73.9292 20.7088 74.0387 20.0015 74.0387 19.2085C74.0387 18.4154 73.9292 17.7081 73.7102 17.0866C73.4972 16.4652 73.1805 15.974 72.7603 15.6129C72.3401 15.2519 71.8163 15.0714 71.1889 15.0714C70.5557 15.0714 70.023 15.2519 69.5909 15.6129C69.1648 15.974 68.8422 16.4652 68.6232 17.0866C68.4102 17.7081 68.3036 18.4154 68.3036 19.2085C68.3036 20.0015 68.4102 20.7088 68.6232 21.3303C68.8422 21.9517 69.1648 22.4429 69.5909 22.804C70.023 23.1591 70.5557 23.3366 71.1889 23.3366ZM80.342 26V12.3636H84.0085V14.7429H84.1506C84.3992 13.8965 84.8164 13.2573 85.4024 12.8253C85.9883 12.3873 86.663 12.1683 87.4265 12.1683C87.6159 12.1683 87.8201 12.1802 88.0391 12.2038C88.2581 12.2275 88.4504 12.2601 88.6161 12.3015V15.6573C88.4386 15.604 88.193 15.5567 87.8793 15.5153C87.5656 15.4738 87.2785 15.4531 87.0181 15.4531C86.4618 15.4531 85.9646 15.5745 85.5267 15.8171C85.0946 16.0539 84.7513 16.3853 84.4968 16.8114C84.2482 17.2376 84.124 17.7288 84.124 18.2852V26H80.342ZM94.3534 7.81818V26H90.5715V7.81818H94.3534ZM101.165 7.81818V26H97.383V7.81818H101.165ZM106.529 31.1136C106.05 31.1136 105.6 31.0752 105.18 30.9982C104.766 30.9272 104.422 30.8355 104.15 30.723L105.002 27.8999C105.446 28.036 105.846 28.11 106.201 28.1218C106.562 28.1336 106.873 28.0508 107.133 27.8732C107.399 27.6957 107.615 27.3938 107.781 26.9677L108.003 26.3906L103.111 12.3636H107.089L109.912 22.3778H110.054L112.904 12.3636H116.908L111.608 27.4737C111.353 28.2076 111.007 28.8468 110.569 29.3913C110.137 29.9418 109.589 30.3649 108.926 30.6609C108.264 30.9627 107.465 31.1136 106.529 31.1136Z" fill="black"/>
<defs>
<linearGradient id="paint0_linear_91_4" x1="13.2228" y1="0" x2="13.2228" y2="26.1006" gradientUnits="userSpaceOnUse">
<stop stop-color="#9D54E6"/>
<stop offset="1" stop-color="#545FE6"/>
</linearGradient>
<linearGradient id="paint1_linear_91_4" x1="20.2228" y1="13.0502" x2="20.2228" y2="29.0005" gradientUnits="userSpaceOnUse">
<stop stop-color="#9D54E6"/>
<stop offset="1" stop-color="#545FE6"/>
</linearGradient>
</defs>
</svg>
